Coordinates
version=1
nRows=11
nColumns=36
inDegrees=yes

Units are S.I. units (second, meters, Newtons, ...)
If the header above contains a line with 'inDegrees', this indicates whether rotational values are in degrees (yes) or radians (no).

endheader
time	pelvis_tilt	pelvis_list	pelvis_rotation	pelvis_tx	pelvis_ty	pelvis_tz	hip_flexion_r	hip_adduction_r	hip_rotation_r	knee_angle_r	knee_angle_r_beta	ankle_angle_r	subtalar_angle_r	mtp_angle_r	hip_flexion_l	hip_adduction_l	hip_rotation_l	knee_angle_l	knee_angle_l_beta	ankle_angle_l	subtalar_angle_l	mtp_angle_l	lumbar_extension	lumbar_bending	lumbar_rotation	arm_flex_r	arm_add_r	arm_rot_r	elbow_flex_r	pro_sup_r	arm_flex_l	arm_add_l	arm_rot_l	elbow_flex_l	pro_sup_l
      1.70000000	     -3.28112415	     -0.24109912	      0.43933325	     -1.01822471	      1.37287987	     -0.07387070	     -1.30430229	      2.89128605	    -15.18363042	      0.10787455	      0.00188277	     10.93620887	     -6.51504255	     -7.49999987	     -1.77069299	      1.22032459	    -22.79546521	      0.09715169	      0.00169562	     10.14881902	     -2.73791407	     -7.49999987	     -0.14867162	     -0.49236858	      0.07892392	     -2.66168728	     -5.15715558	     16.61156820	     29.23229008	     70.05750305	     -1.42781343	    -10.00848199	     24.18014300	     29.74440169	     85.25183105
      1.70416670	     -3.32901905	     -0.23695080	      0.47649003	     -1.01962012	      1.36978830	     -0.07350310	     -1.24759605	      2.91044411	    -15.01931756	      0.10827226	      0.00188971	     10.98518495	     -6.46222332	     -7.49999987	     -1.67235890	      1.21544259	    -22.65640321	      0.09701696	      0.00169327	     10.18280368	     -2.69105697	     -7.49999987	     -0.11176146	     -0.52051068	      0.08290115	     -2.64792717	     -5.16984131	     16.60643268	     29.38422012	     70.01776467	     -1.40484001	    -10.07062011	     24.15567558	     29.88912917	     85.15744594
      1.70833330	     -3.29668378	     -0.21958616	      0.47330586	     -1.02046432	      1.37171586	     -0.07341430	     -1.28020555	      2.90530982	    -14.70096222	      0.10870225	      0.00189721	     11.20166669	     -6.62915044	     -7.49999987	     -1.67917449	      1.23451380	    -22.38028509	      0.09747668	      0.00170129	     10.26368754	     -2.78860537	     -7.49999987	     -0.26859259	     -0.53601590	      0.03699315	     -2.58439641	     -5.16678605	     16.55408712	     29.56324365	     69.32420676	     -1.42086213	    -10.10189481	     24.09383063	     30.02555789	     83.36690971
      1.71250000	     -3.43623735	     -0.21521794	      0.49679739	     -1.01938689	      1.37094266	     -0.07504136	     -1.13916839	      2.88387531	    -14.70955928	      0.10999034	      0.00191969	     11.40946642	     -6.39232177	     -7.49999987	     -1.53646151	      1.26091513	    -22.55584746	      0.09792394	      0.00170910	     10.53275037	     -2.20218621	     -7.49999987	     -0.07342347	     -0.50330046	      0.03612900	     -2.54590566	     -5.27599941	     17.02560297	     29.52096851	     68.94839899	     -1.39109967	    -10.14454597	     24.70733207	     29.97572488	     82.44430627
      1.71666670	     -3.38088187	     -0.21268599	      0.53674001	     -1.01977029	      1.37482727	     -0.07596919	     -1.19976839	      2.84799793	    -14.63667023	      0.11054088	      0.00192930	     11.28036932	     -6.65308792	     -7.49999987	     -1.56759918	      1.29692972	    -22.24385934	      0.09779728	      0.00170688	     10.29742224	     -2.70114960	     -7.49999987	     -0.24394934	     -0.49404180	     -0.01628773	     -2.46541066	     -5.29539169	     16.95920670	     29.63934186	     68.51122005	     -1.32444261	    -10.09628989	     24.68934995	     30.04434699	     81.40486541
      1.72083330	     -3.45169936	     -0.18506536	      0.49081619	     -1.01913331	      1.37492381	     -0.07608894	     -1.10455478	      2.78410359	    -14.51668159	      0.11113089	      0.00193960	     11.25878067	     -6.70298166	     -7.49999987	     -1.48375040	      1.35436371	    -22.25931666	      0.09743639	      0.00170059	     10.21747572	     -2.73386246	     -7.49999987	     -0.20207740	     -0.49654438	     -0.01334478	     -2.38560362	     -5.30028865	     16.94834378	     29.58913304	     68.03119126	     -1.31559920	    -10.05370677	     24.79134530	     29.99792052	     80.36686523
      1.72500000	     -3.61094344	     -0.14351357	      0.50279401	     -1.01938611	      1.37574523	     -0.07636421	     -0.90571383	      2.69789562	    -14.77363059	      0.11154789	      0.00194688	     11.37947704	     -6.24305209	     -7.49999987	     -1.31636131	      1.42996221	    -22.65741788	      0.09731609	      0.00169849	     10.37671233	     -2.08441491	     -7.49999987	      0.01472632	     -0.51286999	      0.00257591	     -2.37450143	     -5.42761690	     17.32819007	     29.57222255	     68.30379308	     -1.28728188	    -10.12312809	     25.37460197	     29.96242621	     81.12273198
      1.72916670	     -3.63566225	     -0.17876375	      0.51040173	     -1.01909320	      1.37225795	     -0.07502128	     -0.89378783	      2.72115597	    -14.67659980	      0.11178087	      0.00195094	     11.33341113	     -6.38719822	     -7.49999987	     -1.29746930	      1.39720287	    -22.36204148	      0.09698315	      0.00169268	     10.19310584	     -2.44427220	     -7.49999987	     -0.04296757	     -0.43086622	     -0.02202571	     -2.32824321	     -5.46178564	     17.20834619	     29.69566508	     68.14313480	     -1.33427122	    -10.08435336	     25.24140679	     30.05328605	     80.80292462
      1.73333330	     -3.66314244	     -0.20794614	      0.51106748	     -1.02066441	      1.37420041	     -0.07603635	     -0.86715511	      2.75469454	    -14.62941499	      0.11259559	      0.00196516	     11.29250026	     -6.53430529	     -7.49999987	     -1.25403846	      1.38583531	    -22.43625003	      0.09690346	      0.00169128	     10.23281143	     -2.34976758	     -7.49999987	     -0.09715864	     -0.38031785	     -0.02613820	     -2.28268047	     -5.50830054	     17.13579345	     29.78892314	     67.87212458	     -1.33819438	    -10.03534513	     25.17656415	     30.10012134	     80.13439980
      1.73750000	     -3.73852168	     -0.19948658	      0.52190862	     -1.01827652	      1.37506226	     -0.07469056	     -0.81710827	      2.78361769	    -14.67581274	      0.11254800	      0.00196433	     11.34417880	     -6.46422714	     -7.49999987	     -1.22653837	      1.37414992	    -22.31068031	      0.09706018	      0.00169402	     10.06884204	     -2.44011445	     -7.49999987	     -0.03448289	     -0.39842023	     -0.06230233	     -2.25062239	     -5.50868256	     17.15445590	     29.78279470	     67.83197104	     -1.40245058	    -10.08176562	     25.20288211	     30.07177629	     80.07909278
      1.74166670	     -3.83677406	     -0.20048358	      0.55756007	     -1.01925968	      1.37558352	     -0.07533670	     -0.71254703	      2.79862167	    -14.64969442	      0.11258345	      0.00196495	     11.21368679	     -6.55080365	     -7.49999987	     -1.12340192	      1.37737764	    -22.34180404	      0.09725526	      0.00169742	     10.05952775	     -2.20404076	     -7.49999987	     -0.01466475	     -0.39069988	     -0.09191557	     -2.22110794	     -5.53663728	     17.15754360	     29.76341787	     67.79964430	     -1.38257789	    -10.03965671	     25.22932020	     30.08115679	     80.00179970
